<svg version="1.1" xmlns="http://www.w3.org/2000/svg" xmlns:xlink="http://www.w3.org/1999/xlink" width="708" height="393" viewBox="0,0,708,393"><g transform="translate(33.46428,14.25582)"><g data-paper-data="{&quot;isPaintingLayer&quot;:true}" fill-rule="nonzero" stroke="none" stroke-width="0" stroke-linecap="butt" stroke-linejoin="miter" stroke-miterlimit="10" stroke-dasharray="" stroke-dashoffset="0" style="mix-blend-mode: normal"><path d="M-13.5,375v-389h21v389z" fill="#808080"/><path d="M-8.46428,7.74418v-22h658v22z" fill="#808080"/><path d="M633.34998,370.74418v-377h27v377z" fill="#808080"/><path d="M-33.46428,378.74418v-26h708v26z" fill="#808080"/><path d="M244.53572,362.74418v-144h21v144z" fill="#808080"/><path d="M371.67831,362.74418v-143h18v143z" fill="#808080"/><path d="M62.54936,224.74418v-18h202.86871v18z" fill="#808080"/><path d="M34.75,286.17275c0,-23.07761 18.7081,-41.78572 41.78571,-41.78572c23.07761,0 41.78572,18.7081 41.78572,41.78572c0,23.07761 -18.7081,41.78571 -41.78572,41.78571c-23.07761,0 -41.78571,-18.7081 -41.78571,-41.78571z" fill="#808080"/><path d="M136.17857,287.60132c0,-23.07761 18.7081,-41.78571 41.78571,-41.78571c23.07762,0 41.78572,18.7081 41.78572,41.78571c0,23.07761 -18.7081,41.78572 -41.78572,41.78572c-23.07762,0 -41.78571,-18.7081 -41.78571,-41.78572z" fill="#808080"/><path d="M371.9189,224.88704v-18h210.36828v18z" data-paper-data="{&quot;index&quot;:null}" fill="#808080"/><path d="M560.80125,328.10132c-23.07762,0 -41.78571,-18.7081 -41.78571,-41.78571c0,-23.07761 18.7081,-41.78572 41.78571,-41.78572c23.07762,0 41.78571,18.7081 41.78571,41.78572c0,23.07761 -18.7081,41.78571 -41.78571,41.78571z" data-paper-data="{&quot;index&quot;:null}" fill="#808080"/><path d="M459.37268,329.52989c-23.07761,0 -41.78571,-18.7081 -41.78571,-41.78572c0,-23.07761 18.7081,-41.78571 41.78571,-41.78571c23.07761,0 41.78571,18.7081 41.78571,41.78571c0,23.07761 -18.7081,41.78572 -41.78571,41.78572z" data-paper-data="{&quot;index&quot;:null}" fill="#808080"/><path d="M62.27143,209.52931v-135.06139h15.68895v135.06139z" fill="#808080"/><path d="M150.26598,138.58798v-18.41747h361.52797v18.41747z" fill="#808080"/><path d="M566.58512,209.48788v-135.06139h15.68895v135.06139z" fill="#808080"/><path d="M238.97532,129.03818v-129.60437h28.64939v129.60437z" fill="#808080"/><path d="M114.10198,61.97766c0,-23.07761 18.7081,-41.78572 41.78571,-41.78572c23.07761,0 41.78571,18.7081 41.78571,41.78572c0,23.07762 -18.7081,41.78571 -41.78571,41.78571c-23.07761,0 -41.78571,-18.7081 -41.78571,-41.78571z" fill="#808080"/><path d="M446.52354,62.32168c0,-23.07761 18.7081,-41.78571 41.78572,-41.78571c23.07762,0 41.78572,18.7081 41.78572,41.78571c0,23.07761 -18.7081,41.78571 -41.78572,41.78571c-23.07762,0 -41.78572,-18.7081 -41.78572,-41.78571z" fill="#808080"/><path d="M344.33863,62.42932c0,-23.07761 18.7081,-41.78571 41.78572,-41.78571c23.07761,0 41.78571,18.7081 41.78571,41.78571c0,23.07762 -18.7081,41.78572 -41.78571,41.78572c-23.07761,0 -41.78572,-18.7081 -41.78572,-41.78572z" fill="#808080"/></g></g></svg>