<svg version="1.1" xmlns="http://www.w3.org/2000/svg" xmlns:xlink="http://www.w3.org/1999/xlink" width="709" height="394" viewBox="0,0,709,394"><g transform="translate(34.46428,15.25582)"><g data-paper-data="{&quot;isPaintingLayer&quot;:true}" fill="#808080" fill-rule="nonzero" stroke="none" stroke-width="0" stroke-linecap="butt" stroke-linejoin="miter" stroke-miterlimit="10" stroke-dasharray="" stroke-dashoffset="0" style="mix-blend-mode: normal"><path d="M-14.5,375v-389h21v389z"/><path d="M-9.46428,7.74418v-22h658v22z"/><path d="M632.34998,370.74418v-377h27v377z"/><path d="M-34.46428,378.74418v-26h708v26z"/><path d="M243.53572,362.74418v-144h21v144z"/><path d="M370.67831,362.74418v-143h18v143z"/><path d="M61.54936,224.74418v-18h202.86871v18z"/><path d="M33.75,286.17275c0,-23.07761 18.7081,-41.78572 41.78571,-41.78572c23.07761,0 41.78572,18.7081 41.78572,41.78572c0,23.07761 -18.7081,41.78571 -41.78572,41.78571c-23.07761,0 -41.78571,-18.7081 -41.78571,-41.78571z"/><path d="M135.17857,287.60132c0,-23.07761 18.7081,-41.78571 41.78571,-41.78571c23.07762,0 41.78572,18.7081 41.78572,41.78571c0,23.07761 -18.7081,41.78572 -41.78572,41.78572c-23.07762,0 -41.78571,-18.7081 -41.78571,-41.78572z"/><path d="M370.9189,224.88704v-18h210.36828v18z" data-paper-data="{&quot;index&quot;:null}"/><path d="M559.80125,328.10132c-23.07762,0 -41.78571,-18.7081 -41.78571,-41.78571c0,-23.07761 18.7081,-41.78572 41.78571,-41.78572c23.07762,0 41.78571,18.7081 41.78571,41.78572c0,23.07761 -18.7081,41.78571 -41.78571,41.78571z" data-paper-data="{&quot;index&quot;:null}"/><path d="M458.37268,329.52989c-23.07761,0 -41.78571,-18.7081 -41.78571,-41.78572c0,-23.07761 18.7081,-41.78571 41.78571,-41.78571c23.07761,0 41.78571,18.7081 41.78571,41.78571c0,23.07761 -18.7081,41.78572 -41.78571,41.78572z" data-paper-data="{&quot;index&quot;:null}"/><path d="M61.27143,209.52931v-135.06139h15.68895v135.06139z"/><path d="M149.26598,138.58798v-18.41747h361.52797v18.41747z"/><path d="M565.58512,209.48788v-135.06139h15.68895v135.06139z"/><path d="M237.97532,129.03818v-129.60437h28.64939v129.60437z"/><path d="M113.10198,61.97766c0,-23.07761 18.7081,-41.78572 41.78571,-41.78572c23.07761,0 41.78571,18.7081 41.78571,41.78572c0,23.07762 -18.7081,41.78571 -41.78571,41.78571c-23.07761,0 -41.78571,-18.7081 -41.78571,-41.78571z"/><path d="M445.52354,62.32168c0,-23.07761 18.7081,-41.78571 41.78572,-41.78571c23.07762,0 41.78572,18.7081 41.78572,41.78571c0,23.07761 -18.7081,41.78571 -41.78572,41.78571c-23.07762,0 -41.78572,-18.7081 -41.78572,-41.78571z"/><path d="M343.33863,62.42932c0,-23.07761 18.7081,-41.78571 41.78572,-41.78571c23.07761,0 41.78571,18.7081 41.78571,41.78571c0,23.07762 -18.7081,41.78572 -41.78571,41.78572c-23.07761,0 -41.78572,-18.7081 -41.78572,-41.78572z"/><path d="M-13.5,374v-389h21v389z"/><path d="M-8.46428,6.74418v-22h658v22z"/><path d="M633.34998,369.74418v-377h27v377z"/><path d="M-33.46428,377.74418v-26h708v26z"/><path d="M244.53572,361.74418v-144h21v144z"/><path d="M371.67831,361.74418v-143h18v143z"/><path d="M62.54936,223.74418v-18h202.86871v18z"/><path d="M34.75,285.17275c0,-23.07761 18.7081,-41.78572 41.78571,-41.78572c23.07761,0 41.78572,18.7081 41.78572,41.78572c0,23.07761 -18.7081,41.78571 -41.78572,41.78571c-23.07761,0 -41.78571,-18.7081 -41.78571,-41.78571z"/><path d="M136.17857,286.60132c0,-23.07761 18.7081,-41.78571 41.78571,-41.78571c23.07762,0 41.78572,18.7081 41.78572,41.78571c0,23.07761 -18.7081,41.78572 -41.78572,41.78572c-23.07762,0 -41.78571,-18.7081 -41.78571,-41.78572z"/><path d="M371.9189,223.88704v-18h210.36828v18z" data-paper-data="{&quot;index&quot;:null}"/><path d="M560.80125,327.10132c-23.07762,0 -41.78571,-18.7081 -41.78571,-41.78571c0,-23.07761 18.7081,-41.78572 41.78571,-41.78572c23.07762,0 41.78571,18.7081 41.78571,41.78572c0,23.07761 -18.7081,41.78571 -41.78571,41.78571z" data-paper-data="{&quot;index&quot;:null}"/><path d="M459.37268,328.52989c-23.07761,0 -41.78571,-18.7081 -41.78571,-41.78572c0,-23.07761 18.7081,-41.78571 41.78571,-41.78571c23.07761,0 41.78571,18.7081 41.78571,41.78571c0,23.07761 -18.7081,41.78572 -41.78571,41.78572z" data-paper-data="{&quot;index&quot;:null}"/><path d="M62.27143,208.52931v-135.06139h15.68895v135.06139z"/><path d="M150.26598,137.58798v-18.41747h361.52797v18.41747z"/><path d="M566.58512,208.48788v-135.06139h15.68895v135.06139z"/><path d="M238.97532,128.03818v-129.60437h28.64939v129.60437z"/><path d="M114.10198,60.97766c0,-23.07761 18.7081,-41.78572 41.78571,-41.78572c23.07761,0 41.78571,18.7081 41.78571,41.78572c0,23.07762 -18.7081,41.78571 -41.78571,41.78571c-23.07761,0 -41.78571,-18.7081 -41.78571,-41.78571z"/><path d="M446.52354,61.32168c0,-23.07761 18.7081,-41.78571 41.78572,-41.78571c23.07762,0 41.78572,18.7081 41.78572,41.78571c0,23.07761 -18.7081,41.78571 -41.78572,41.78571c-23.07762,0 -41.78572,-18.7081 -41.78572,-41.78571z"/><path d="M344.33863,61.42932c0,-23.07761 18.7081,-41.78571 41.78572,-41.78571c23.07761,0 41.78571,18.7081 41.78571,41.78571c0,23.07762 -18.7081,41.78572 -41.78571,41.78572c-23.07761,0 -41.78572,-18.7081 -41.78572,-41.78572z"/></g></g></svg>